<svg width="117" height="51" viewBox="0 0 117 51" fill="none" xmlns="http://www.w3.org/2000/svg">
<path d="M97.4592 13.465V13.2109H102.048V13.465C102.048 13.465 101.934 13.5158 101.707 13.6175C101.48 13.7166 101.251 13.9224 101.021 14.2374C100.794 14.55 100.681 15.0276 100.681 15.6705V28.5068C100.681 29.1649 100.794 29.6502 101.021 29.9653C101.251 30.2778 101.48 30.481 101.707 30.5751C101.934 30.6665 102.048 30.7123 102.048 30.7123V30.9663H97.4592V30.7123C97.4592 30.7123 97.5722 30.6665 97.7996 30.5751C98.0296 30.481 98.2532 30.2778 98.4704 29.9653C98.6902 29.6502 98.8007 29.1649 98.8007 28.5068V15.6705C98.8007 15.0276 98.6902 14.55 98.4704 14.2374C98.2532 13.9224 98.0296 13.7166 97.7996 13.6175C97.5722 13.5158 97.4592 13.465 97.4592 13.465Z" fill="#7D1C4A"/>
<path d="M114.275 22.1903C114.275 22.1903 114.275 22.3974 114.275 22.8102C114.275 23.2244 114.232 23.758 114.148 24.411C114.063 25.0614 113.916 25.7551 113.706 26.4894C113.495 27.225 113.188 27.9262 112.781 28.5932C112.375 29.2614 111.832 29.8153 111.155 30.2549C110.48 30.6957 109.643 30.9333 108.645 30.9663C109.051 31.101 109.464 31.3043 109.885 31.5761C110.308 31.8467 110.68 32.1923 111.003 32.6128C111.324 33.0359 111.518 33.5605 111.587 34.1881C111.705 35.0342 111.816 35.8803 111.917 36.7239C112.019 37.57 112.192 38.2967 112.436 38.9039C112.682 39.5137 113.058 39.9025 113.564 40.0727C113.564 40.0727 113.442 40.0676 113.198 40.0575C112.954 40.0499 112.662 39.9825 112.324 39.8542C111.985 39.7284 111.663 39.5048 111.358 39.1834C110.917 38.6613 110.601 38.0731 110.408 37.4201C110.215 36.7696 110.088 36.1471 110.027 35.5551C109.968 34.9656 109.915 34.5007 109.864 34.1627C109.763 33.3827 109.596 32.7818 109.366 32.3587C109.139 31.9382 108.85 31.6219 108.502 31.4085C108.157 31.1976 107.763 31.0172 107.323 30.8647C107.072 30.8139 106.828 30.7466 106.592 30.6614C106.354 30.5776 106.134 30.4836 105.931 30.382C105.202 29.9932 104.617 29.4647 104.178 28.7965C103.741 28.1295 103.407 27.4168 103.177 26.6571C102.949 25.8948 102.793 25.1758 102.709 24.4974C102.624 23.8202 102.582 23.2663 102.582 22.8356C102.582 22.4062 102.582 22.1903 102.582 22.1903C102.582 22.1903 102.585 21.9756 102.592 21.5449C102.603 21.1117 102.644 20.5527 102.719 19.8679C102.797 19.1845 102.949 18.4629 103.177 17.7031C103.407 16.9409 103.732 16.218 104.152 15.5333C104.576 14.846 105.138 14.287 105.84 13.8563C106.543 13.4269 107.411 13.2109 108.441 13.2109C109.474 13.2109 110.333 13.4269 111.018 13.8563C111.701 14.287 112.255 14.846 112.68 15.5333C113.103 16.218 113.428 16.9409 113.655 17.7031C113.881 18.4629 114.038 19.1845 114.123 19.8679C114.207 20.5527 114.252 21.1117 114.26 21.5449C114.27 21.9756 114.275 22.1903 114.275 22.1903ZM108.441 30.509C109.119 30.509 109.689 30.3083 110.154 29.9043C110.618 29.4977 110.989 28.9731 111.267 28.3289C111.548 27.6861 111.765 27.0103 111.917 26.3014C112.07 25.5899 112.174 24.9128 112.232 24.2687C112.293 23.6259 112.326 23.1024 112.334 22.6984C112.344 22.2919 112.349 22.0886 112.349 22.0886C112.349 22.0886 112.34 21.8854 112.324 21.4788C112.306 21.0723 112.264 20.5489 112.197 19.9086C112.128 19.2658 112.014 18.5874 111.851 17.8759C111.691 17.1645 111.471 16.4886 111.191 15.8483C110.912 15.2055 110.55 14.6795 110.103 14.273C109.656 13.8665 109.102 13.6632 108.441 13.6632C107.746 13.6632 107.162 13.8665 106.688 14.273C106.217 14.6795 105.837 15.2055 105.55 15.8483C105.262 16.4886 105.044 17.1645 104.899 17.8759C104.757 18.5874 104.656 19.2658 104.595 19.9086C104.536 20.5489 104.508 21.0723 104.508 21.4788C104.508 21.8854 104.508 22.0886 104.508 22.0886C104.508 22.0886 104.508 22.2919 104.508 22.6984C104.508 23.1024 104.534 23.6259 104.584 24.2687C104.635 24.9128 104.732 25.5899 104.874 26.3014C105.019 27.0103 105.236 27.6861 105.525 28.3289C105.812 28.9731 106.191 29.4977 106.663 29.9043C107.137 30.3083 107.73 30.509 108.441 30.509Z" fill="#7D1C4A"/>
<path d="M57.7245 22.7714C57.7245 22.7714 57.7194 22.8667 57.7092 23.056C57.6991 23.2427 57.6648 23.4727 57.6076 23.7471C57.553 24.0215 57.4463 24.2959 57.2875 24.5703C57.1312 24.8447 56.9076 25.0772 56.6167 25.2665C56.3283 25.4533 55.9522 25.546 55.4885 25.546L54.2232 25.5308L55.2599 25.9424L57.1452 29.4741C57.3484 29.84 57.5415 30.1043 57.7245 30.2669C57.9074 30.4295 58.0561 30.5299 58.1717 30.5667C58.2898 30.601 58.3495 30.6175 58.3495 30.6175V30.77H56.4591L53.9793 25.5308V29.2912C53.9793 29.6876 54.0466 29.981 54.1825 30.1703C54.321 30.3571 54.4582 30.479 54.5942 30.5362C54.7326 30.5908 54.8025 30.6175 54.8025 30.6175V30.77H52.0432V30.6175C52.0736 30.6074 52.1461 30.5756 52.2617 30.521C52.3798 30.4638 52.5018 30.3571 52.6275 30.2008C52.7559 30.042 52.8308 29.8045 52.8511 29.4894V21.1707C52.8308 20.8759 52.7508 20.6663 52.6123 20.5405C52.4764 20.4122 52.3481 20.3322 52.2261 20.3017C52.1041 20.2712 52.0432 20.256 52.0432 20.256V20.1035H54.955C55.4796 20.1035 55.9205 20.1886 56.2762 20.3576C56.6319 20.524 56.9114 20.7425 57.1147 21.0131C57.3179 21.2812 57.4666 21.5709 57.5619 21.8821C57.6597 22.1908 57.7143 22.4868 57.7245 22.7714ZM54.9854 25.3021C55.3412 25.3021 55.6232 25.2144 55.8341 25.0378C56.0475 24.8587 56.2114 24.6402 56.327 24.3823C56.4452 24.1219 56.5252 23.864 56.5659 23.6099C56.6065 23.3558 56.6281 23.1411 56.6319 22.9645C56.6383 22.7854 56.6421 22.6952 56.6421 22.6952V22.6647C56.6421 22.2073 56.5811 21.8313 56.4591 21.5366C56.3372 21.2418 56.1847 21.0169 56.0018 20.8607C55.8188 20.7019 55.6334 20.5863 55.4479 20.5151C55.2611 20.444 55.1074 20.4021 54.9854 20.3881C54.8635 20.3716 54.8025 20.3627 54.8025 20.3627H53.9793V25.3021H54.9854Z" fill="#7D1C4A"/>
<path d="M65.813 25.4996C65.813 25.4996 65.813 25.6304 65.813 25.8908C65.813 26.1487 65.7876 26.4803 65.7368 26.8869C65.686 27.2909 65.5907 27.7241 65.4522 28.1878C65.3163 28.6489 65.1181 29.0821 64.8576 29.4887C64.5997 29.8952 64.258 30.2293 63.8311 30.4898C63.4043 30.7477 62.872 30.876 62.2355 30.876C61.5952 30.876 61.0616 30.7477 60.6348 30.4898C60.2079 30.2293 59.8636 29.8952 59.6032 29.4887C59.3453 29.0821 59.1509 28.6489 59.0188 28.1878C58.8867 27.7241 58.7952 27.2909 58.7444 26.8869C58.6936 26.4803 58.6682 26.1487 58.6682 25.8908C58.6682 25.6304 58.6682 25.4996 58.6682 25.4996C58.6682 25.4996 58.6694 25.3674 58.6732 25.1032C58.6796 24.8389 58.705 24.4985 58.7495 24.0818C58.7965 23.6651 58.8879 23.2217 59.0239 22.7504C59.1623 22.2765 59.3605 21.8306 59.6184 21.4139C59.8789 20.9972 60.2231 20.6567 60.65 20.3925C61.0769 20.1282 61.6054 19.9961 62.2355 19.9961C62.8618 19.9961 63.3852 20.1282 63.8057 20.3925C64.2288 20.6567 64.5731 20.9972 64.8373 21.4139C65.1016 21.8306 65.301 22.2765 65.437 22.7504C65.5754 23.2217 65.6707 23.6651 65.7215 24.0818C65.7723 24.4985 65.799 24.8389 65.8028 25.1032C65.8092 25.3674 65.813 25.4996 65.813 25.4996ZM62.2355 30.6016C62.6585 30.6016 63.013 30.4783 63.2976 30.2306C63.5821 29.9803 63.8108 29.6602 63.9836 29.2702C64.1564 28.8776 64.2885 28.4609 64.38 28.0201C64.4714 27.5767 64.5337 27.16 64.568 26.77C64.6048 26.3812 64.6252 26.0624 64.629 25.8146C64.6353 25.5643 64.6391 25.4386 64.6391 25.4386C64.6391 25.4386 64.634 25.3153 64.6239 25.0676C64.6137 24.8173 64.5883 24.4972 64.5477 24.1072C64.507 23.7146 64.4371 23.2979 64.3393 22.8571C64.244 22.4137 64.1068 21.997 63.9277 21.607C63.7511 21.2144 63.5262 20.8943 63.2518 20.6465C62.9774 20.3963 62.6382 20.2705 62.2355 20.2705C61.8086 20.2705 61.4529 20.3963 61.1683 20.6465C60.8838 20.8943 60.6513 21.2144 60.4721 21.607C60.2956 21.997 60.1634 22.4137 60.0758 22.8571C59.9907 23.2979 59.9297 23.7146 59.8928 24.1072C59.8585 24.4972 59.842 24.8173 59.842 25.0676C59.842 25.3153 59.842 25.4386 59.842 25.4386C59.842 25.4386 59.842 25.5643 59.842 25.8146C59.842 26.0624 59.8573 26.3812 59.8878 26.77C59.9182 27.16 59.9754 27.5767 60.0605 28.0201C60.1482 28.4609 60.279 28.8776 60.4518 29.2702C60.6246 29.6602 60.8545 29.9803 61.1429 30.2306C61.4339 30.4783 61.7985 30.6016 62.2355 30.6016Z" fill="#7D1C4A"/>
<path d="M69.3954 31.4698H68.7094L68.7247 30.9058C68.2673 30.8956 67.8658 30.7813 67.5203 30.5653C67.1747 30.3455 66.8902 30.1029 66.6666 29.8386C66.6666 29.8386 66.6564 29.8284 66.6361 29.8081C66.5954 29.7675 66.5599 29.7471 66.5294 29.7471C66.4684 29.7471 66.4227 29.798 66.3922 29.8996C66.3617 30.0012 66.3363 30.1219 66.3159 30.2604C66.2956 30.3963 66.2816 30.5145 66.2753 30.6161C66.2715 30.7177 66.2702 30.7686 66.2702 30.7686H66.1482L66.133 26.6117H66.3769C66.3769 26.6117 66.3782 26.7083 66.382 26.9014C66.3884 27.092 66.4125 27.3371 66.4531 27.6382C66.4938 27.9368 66.5611 28.2569 66.6564 28.5987C66.7542 28.9379 66.8902 29.2593 67.0629 29.5642C67.2357 29.8691 67.4593 30.1181 67.7337 30.3112C68.0081 30.5043 68.3435 30.6059 68.7399 30.6161L68.9381 25.758L67.627 24.7671C67.2306 24.5028 66.927 24.1814 66.7174 23.8016C66.5103 23.4192 66.3972 23.019 66.3769 22.6023C66.3566 22.1856 66.429 21.793 66.5954 21.4233C66.7644 21.0511 67.0274 20.7411 67.3831 20.4934C67.7388 20.2431 68.1911 20.0919 68.7399 20.0411L68.7094 19.3398H69.3954L69.3649 20.0411C69.7677 20.0919 70.1132 20.219 70.4016 20.4222C70.6925 20.6255 70.9352 20.844 71.1283 21.0778C71.1791 21.1388 71.2248 21.1693 71.2655 21.1693C71.3265 21.1693 71.3722 21.1184 71.4027 21.0168C71.4332 20.9152 71.4586 20.797 71.4789 20.6611C71.4993 20.5226 71.5107 20.4019 71.5145 20.3003C71.5209 20.1986 71.5247 20.1478 71.5247 20.1478H71.6466V24.325H71.4179C71.4179 24.325 71.4129 24.2017 71.4027 23.954C71.3925 23.7037 71.357 23.3899 71.296 23.0139C71.235 22.6379 71.1334 22.2555 70.9911 21.8654C70.8488 21.4729 70.6455 21.1337 70.3813 20.8491C70.117 20.5645 69.7728 20.3918 69.3497 20.3308L69.1973 23.7609V24.3707L70.2898 25.1787C70.798 25.5243 71.1893 25.9257 71.4637 26.3831C71.7381 26.8379 71.8969 27.3079 71.9414 27.7958C71.9884 28.2836 71.921 28.7448 71.7381 29.178C71.5552 29.6087 71.2655 29.9758 70.8691 30.2807C70.4728 30.5856 69.976 30.7787 69.3802 30.86L69.3954 31.4698ZM68.2063 23.6389L68.9228 24.1725L68.7551 20.346C68.4096 20.4375 68.111 20.6458 67.8608 20.9711C67.613 21.2963 67.4898 21.6825 67.4898 22.1297C67.4898 22.5362 67.5673 22.8602 67.7236 23.1003C67.8824 23.3379 68.0437 23.517 68.2063 23.6389ZM69.1973 26.7185L69.3649 30.5399C69.7473 30.4281 70.0726 30.1931 70.3406 29.8335C70.6112 29.4715 70.7472 28.9544 70.7472 28.2836C70.7472 27.7958 70.657 27.407 70.4778 27.1148C70.3012 26.8201 70.0942 26.5851 69.8579 26.4085C69.6203 26.2293 69.4005 26.0731 69.1973 25.941V26.7185Z" fill="#7D1C4A"/>
<path d="M78.075 22.7714C78.075 22.7714 78.0711 22.8667 78.0648 23.056C78.061 23.2427 78.0254 23.4765 77.9581 23.7572C77.8933 24.0355 77.7764 24.315 77.6074 24.5957C77.441 24.8739 77.2009 25.1077 76.8858 25.297C76.5708 25.4837 76.1553 25.5765 75.6408 25.5765H74.2078V29.2912C74.2078 29.6876 74.2751 29.981 74.4111 30.1703C74.5495 30.3571 74.6867 30.479 74.8227 30.5362C74.9611 30.5908 75.031 30.6175 75.031 30.6175V30.77H72.2717V30.6175C72.3022 30.6074 72.3746 30.5756 72.4902 30.521C72.6083 30.4638 72.7303 30.3571 72.8561 30.2008C72.9844 30.042 73.0593 29.8045 73.0797 29.4894V21.1707C73.0593 20.8759 72.9793 20.6663 72.8408 20.5405C72.7049 20.4122 72.5766 20.3322 72.4546 20.3017C72.3326 20.2712 72.2717 20.256 72.2717 20.256V20.1035H75.3207C75.8454 20.1035 76.2824 20.1886 76.6318 20.3576C76.9837 20.524 77.2632 20.7425 77.4702 21.0131C77.6799 21.2812 77.831 21.5709 77.9225 21.8821C78.014 22.1908 78.0648 22.4868 78.075 22.7714ZM75.3512 25.3021C75.7069 25.3021 75.9889 25.2144 76.1998 25.0378C76.4132 24.8587 76.5759 24.6402 76.6877 24.3823C76.7994 24.1219 76.8757 23.864 76.9163 23.6099C76.957 23.3558 76.9786 23.1411 76.9824 22.9645C76.9887 22.7854 76.9926 22.6952 76.9926 22.6952V22.6647C76.9926 22.2073 76.9316 21.8313 76.8096 21.5366C76.6877 21.2418 76.5352 21.0169 76.3523 20.8607C76.1693 20.7019 75.9864 20.5863 75.8034 20.5151C75.623 20.444 75.4731 20.4021 75.3512 20.3881C75.2292 20.3716 75.1682 20.3627 75.1682 20.3627H74.2078V25.3021H75.3512Z" fill="#7D1C4A"/>
<path d="M83.7977 30.77H78.3908V30.6175C78.3908 30.6175 78.4581 30.5908 78.5941 30.5362C78.7326 30.479 78.8685 30.3571 79.0006 30.1703C79.1327 29.981 79.1988 29.6876 79.1988 29.2912V21.5823C79.1988 21.1758 79.1327 20.8797 79.0006 20.693C78.8685 20.5037 78.7326 20.383 78.5941 20.3322C78.4581 20.2814 78.3908 20.256 78.3908 20.256V20.1035H83.7977V23.2592H83.6605C83.6605 23.2592 83.6567 23.1627 83.6504 22.9696C83.6465 22.7765 83.6262 22.5364 83.5894 22.248C83.5551 21.9571 83.4992 21.6687 83.4217 21.3841C83.3467 21.0995 83.2387 20.8607 83.0964 20.6676C82.9542 20.4745 82.7712 20.3779 82.5476 20.3779H80.3422V23.93H82.075C82.2173 23.93 82.3304 23.8627 82.4155 23.7268C82.5032 23.5883 82.573 23.4155 82.6239 23.2084C82.6747 22.9988 82.7102 22.7917 82.7306 22.5885C82.7509 22.3852 82.7623 22.2162 82.7661 22.0803C82.7725 21.9418 82.7763 21.8719 82.7763 21.8719H82.9135V26.2625H82.7763C82.7763 26.2625 82.7763 26.1952 82.7763 26.0592C82.7763 25.9208 82.7674 25.748 82.7509 25.5409C82.7369 25.3313 82.7064 25.1242 82.6594 24.921C82.615 24.7177 82.5489 24.5487 82.4612 24.4128C82.3761 24.2743 82.258 24.2044 82.1055 24.2044H80.3422V30.4956H82.5476C82.7712 30.4956 82.9542 30.399 83.0964 30.2059C83.2387 30.0128 83.3467 29.774 83.4217 29.4894C83.4992 29.2048 83.5551 28.919 83.5894 28.6306C83.6262 28.3397 83.6465 28.097 83.6504 27.9039C83.6567 27.7108 83.6605 27.6142 83.6605 27.6142H83.7977V30.77Z" fill="#7D1C4A"/>
<path d="M89.8006 22.7714C89.8006 22.7714 89.7956 22.8667 89.7854 23.056C89.7752 23.2427 89.7409 23.4727 89.6838 23.7471C89.6291 24.0215 89.5224 24.2959 89.3636 24.5703C89.2074 24.8447 88.9838 25.0772 88.6928 25.2665C88.4045 25.4533 88.0284 25.546 87.5647 25.546L86.2994 25.5308L87.336 25.9424L89.2213 29.4741C89.4246 29.84 89.6177 30.1043 89.8006 30.2669C89.9836 30.4295 90.1322 30.5299 90.2478 30.5667C90.366 30.601 90.4257 30.6175 90.4257 30.6175V30.77H88.5353L86.0554 25.5308V29.2912C86.0554 29.6876 86.1228 29.981 86.2587 30.1703C86.3972 30.3571 86.5344 30.479 86.6703 30.5362C86.8088 30.5908 86.8787 30.6175 86.8787 30.6175V30.77H84.1193V30.6175C84.1498 30.6074 84.2222 30.5756 84.3378 30.521C84.456 30.4638 84.5779 30.3571 84.7037 30.2008C84.832 30.042 84.907 29.8045 84.9273 29.4894V21.1707C84.907 20.8759 84.8269 20.6663 84.6885 20.5405C84.5525 20.4122 84.4242 20.3322 84.3023 20.3017C84.1803 20.2712 84.1193 20.256 84.1193 20.256V20.1035H87.0311C87.5558 20.1035 87.9966 20.1886 88.3524 20.3576C88.7081 20.524 88.9876 20.7425 89.1908 21.0131C89.3941 21.2812 89.5428 21.5709 89.638 21.8821C89.7359 22.1908 89.7905 22.4868 89.8006 22.7714ZM87.0616 25.3021C87.4173 25.3021 87.6994 25.2144 87.9103 25.0378C88.1237 24.8587 88.2876 24.6402 88.4032 24.3823C88.5213 24.1219 88.6014 23.864 88.642 23.6099C88.6827 23.3558 88.7043 23.1411 88.7081 22.9645C88.7144 22.7854 88.7182 22.6952 88.7182 22.6952V22.6647C88.7182 22.2073 88.6573 21.8313 88.5353 21.5366C88.4133 21.2418 88.2609 21.0169 88.078 20.8607C87.895 20.7019 87.7095 20.5863 87.5241 20.5151C87.3373 20.444 87.1836 20.4021 87.0616 20.3881C86.9397 20.3716 86.8787 20.3627 86.8787 20.3627H86.0554V25.3021H87.0616Z" fill="#7D1C4A"/>
<path d="M51.9409 17.6472C51.9409 17.6472 51.9359 17.8048 51.9257 18.1198C51.9181 18.4324 51.8596 18.8198 51.7478 19.2836C51.6386 19.7485 51.4442 20.2135 51.1634 20.681C50.8852 21.146 50.4838 21.5347 49.9591 21.8498C49.4369 22.1623 48.7446 22.3173 47.8807 22.3173H45.4974V28.5068C45.4974 29.1649 45.6104 29.6502 45.8378 29.9653C46.0678 30.2778 46.2965 30.481 46.5239 30.5751C46.75 30.6665 46.8643 30.7123 46.8643 30.7123V30.9663H42.2756V30.7123C42.3264 30.6957 42.4484 30.6411 42.6415 30.5496C42.8371 30.4556 43.0404 30.2778 43.2513 30.0161C43.4647 29.7518 43.5866 29.3593 43.6171 28.8371V14.9844C43.5866 14.4941 43.4558 14.1434 43.2258 13.9325C42.9984 13.7191 42.7837 13.5895 42.5805 13.5412C42.3772 13.4904 42.2756 13.465 42.2756 13.465V13.2109H47.3471C48.2275 13.2109 48.9593 13.3507 49.5424 13.6276C50.1242 13.9059 50.5892 14.2705 50.9348 14.7202C51.2829 15.1674 51.5344 15.6489 51.6869 16.1634C51.8393 16.6792 51.9232 17.1734 51.9409 17.6472ZM47.3979 21.86C47.9899 21.86 48.4651 21.7126 48.8208 21.4179C49.1765 21.1206 49.4471 20.756 49.6339 20.3253C49.8193 19.8959 49.9451 19.469 50.0099 19.0447C50.0772 18.6217 50.1141 18.2621 50.1217 17.9674C50.1319 17.6701 50.1369 17.5202 50.1369 17.5202V17.4694C50.1369 16.7109 50.0353 16.0859 49.832 15.5942C49.6313 15.1039 49.3798 14.7278 49.0749 14.4661C48.77 14.2019 48.4651 14.0113 48.1602 13.8919C47.8553 13.7737 47.6012 13.7026 47.3979 13.6785C47.1946 13.6518 47.093 13.6378 47.093 13.6378H45.4974V21.86H47.3979Z" fill="#7D1C4A"/>
<path d="M95.9119 30.6016V31.3892L94.1689 31.1402H93.8487L92.0549 31.3892V30.6016L93.8487 30.8455H94.179L95.9119 30.6016Z" fill="#7D1C4A"/>
<path d="M97.1939 25.0092C97.1939 25.0092 97.1939 25.126 97.1939 25.3598C97.1939 25.591 97.1698 25.8883 97.1228 26.2542C97.0783 26.6175 96.9958 27.0063 96.8738 27.423C96.7518 27.8371 96.574 28.2259 96.3402 28.5918C96.109 28.9551 95.8028 29.2524 95.4204 29.4861C95.0368 29.7173 94.5591 29.8317 93.9874 29.8317C93.4106 29.8317 92.9317 29.7173 92.5493 29.4861C92.1656 29.2524 91.8582 28.9551 91.6244 28.5918C91.3932 28.2259 91.2191 27.8371 91.101 27.423C90.9816 27.0063 90.9003 26.6175 90.8571 26.2542C90.8126 25.8883 90.791 25.591 90.791 25.3598C90.791 25.126 90.791 25.0092 90.791 25.0092C90.791 25.0092 90.7923 24.891 90.7961 24.6534C90.7986 24.4172 90.8215 24.1123 90.8622 23.7387C90.9028 23.3665 90.9841 22.9689 91.1061 22.5446C91.2306 22.1215 91.4084 21.7239 91.6397 21.3504C91.8734 20.9743 92.1809 20.6694 92.5645 20.4357C92.9469 20.1994 93.4208 20.0799 93.9874 20.0799C94.5489 20.0799 95.019 20.1994 95.395 20.4357C95.7736 20.6694 96.0823 20.9743 96.3199 21.3504C96.5562 21.7239 96.7366 22.1215 96.8585 22.5446C96.983 22.9689 97.0682 23.3665 97.1126 23.7387C97.1596 24.1123 97.185 24.4172 97.1889 24.6534C97.1914 24.891 97.1939 25.0092 97.1939 25.0092ZM93.9874 29.5827C94.366 29.5827 94.6836 29.4734 94.9377 29.2524C95.1943 29.0288 95.4001 28.7429 95.5526 28.3936C95.7075 28.0417 95.827 27.6669 95.9083 27.2705C95.9921 26.8741 96.0506 26.5019 96.081 26.1525C96.1141 25.8006 96.1331 25.5123 96.1369 25.2887C96.1395 25.0651 96.142 24.9533 96.142 24.9533C96.142 24.9533 96.1369 24.8415 96.1268 24.6179C96.1192 24.3943 96.0976 24.1084 96.0607 23.7591C96.0226 23.411 95.9604 23.0375 95.8727 22.6411C95.7876 22.2447 95.6656 21.8725 95.5068 21.5231C95.3467 21.1712 95.1435 20.8828 94.897 20.6592C94.6531 20.4357 94.3495 20.3239 93.9874 20.3239C93.6037 20.3239 93.2836 20.4357 93.027 20.6592C92.7729 20.8828 92.5658 21.1712 92.407 21.5231C92.2469 21.8725 92.1288 22.2447 92.0513 22.6411C91.9725 23.0375 91.9191 23.411 91.8887 23.7591C91.8582 24.1084 91.8429 24.3943 91.8429 24.6179C91.8429 24.8415 91.8429 24.9533 91.8429 24.9533C91.8429 24.9533 91.8429 25.0651 91.8429 25.2887C91.8429 25.5123 91.8556 25.8006 91.8836 26.1525C91.9103 26.5019 91.9611 26.8741 92.036 27.2705C92.1135 27.6669 92.2304 28.0417 92.3867 28.3936C92.5417 28.7429 92.7487 29.0288 93.0066 29.2524C93.2671 29.4734 93.5936 29.5827 93.9874 29.5827Z" fill="#7D1C4A"/>
<mask id="mask0_2677_7543" style="mask-type:luminance" maskUnits="userSpaceOnUse" x="0" y="7" width="36" height="37">
<path d="M0 7.92775H35.671V43.5425H0V7.92775Z" fill="white"/>
</mask>
<g mask="url(#mask0_2677_7543)">
<mask id="mask1_2677_7543" style="mask-type:luminance" maskUnits="userSpaceOnUse" x="0" y="7" width="36" height="37">
<path d="M17.8345 7.92775C7.98499 7.92775 0 15.9002 0 25.7362C0 35.5701 7.98499 43.5425 17.8345 43.5425C27.6839 43.5425 35.671 35.5701 35.671 25.7362C35.671 15.9002 27.6839 7.92775 17.8345 7.92775Z" fill="white"/>
</mask>
<g mask="url(#mask1_2677_7543)">
<path d="M0 7.92775V43.5425H35.671V7.92775H0Z" fill="url(#paint0_linear_2677_7543)"/>
</g>
</g>
<path d="M23.4066 17.4401L23.3481 17.0977L23.0057 17.1562C22.0641 17.3139 21.4288 18.2105 21.5865 19.1521L21.6451 19.4945L21.9875 19.4359C22.9291 19.2737 23.5643 18.3817 23.4066 17.4401Z" fill="#FFE500"/>
<path d="M23.6418 21.2273C24.5969 21.2273 25.3718 20.4524 25.3718 19.4973V19.1504H25.0249C24.0698 19.1504 23.2949 19.9253 23.2949 20.8804V21.2273H23.6418Z" fill="#FFE500"/>
<path d="M26.6528 22.6228L26.8285 22.321L26.5267 22.1498C25.6977 21.6722 24.639 21.9561 24.1614 22.785L23.9902 23.0824L24.2876 23.2581C25.1165 23.7356 26.1753 23.4518 26.6528 22.6228Z" fill="#FFE500"/>
<path d="M25.5787 26.0585L25.8851 25.9009L25.7274 25.59C25.2904 24.7385 24.2496 24.4051 23.3982 24.8376L23.0918 24.9953L23.2495 25.3017C23.682 26.1532 24.7272 26.491 25.5787 26.0585Z" fill="#FFE500"/>
<path d="M9.55982 21.2289L9.27148 21.4226L9.46521 21.7109C9.99232 22.5039 11.0691 22.7201 11.862 22.1885L12.1503 21.9993L11.9611 21.7109C11.4295 20.9135 10.3572 20.7018 9.55982 21.2289Z" fill="#FFE500"/>
<mask id="mask2_2677_7543" style="mask-type:luminance" maskUnits="userSpaceOnUse" x="15" y="15" width="4" height="5">
<path d="M15.9297 15.1914H18.2364V19.2506H15.9297V15.1914Z" fill="white"/>
</mask>
<g mask="url(#mask2_2677_7543)">
<path d="M17.0288 18.1323L17.245 17.862C17.8442 17.1141 17.7226 16.0238 16.9792 15.4292L16.7089 15.2129L16.4881 15.4787C15.8934 16.2266 16.0106 17.3168 16.7584 17.9115L17.0288 18.1323Z" fill="#FFE500"/>
</g>
<mask id="mask3_2677_7543" style="mask-type:luminance" maskUnits="userSpaceOnUse" x="12" y="15" width="4" height="4">
<path d="M12.4707 15.1914H15.9307V18.0973H12.4707V15.1914Z" fill="white"/>
</mask>
<g mask="url(#mask3_2677_7543)">
<path d="M14.4815 17.9284L14.8194 17.9914L14.887 17.6535C15.0672 16.7165 14.4545 15.8064 13.5129 15.6262L13.175 15.5586L13.1074 15.901C12.9272 16.8381 13.5445 17.7482 14.4815 17.9284Z" fill="#FFE500"/>
</g>
<path d="M12.5439 19.6673L12.8908 19.6267L12.8503 19.2843C12.7467 18.3337 11.8952 17.6489 10.9446 17.7526L10.5977 17.7886L10.6382 18.1355C10.7418 19.0861 11.5933 19.7709 12.5439 19.6673Z" fill="#FFE500"/>
<mask id="mask4_2677_7543" style="mask-type:luminance" maskUnits="userSpaceOnUse" x="18" y="15" width="4" height="5">
<path d="M18.2363 15.1914H21.6964V19.2506H18.2363V15.1914Z" fill="white"/>
</mask>
<g mask="url(#mask4_2677_7543)">
<path d="M19.9572 18.5286L20.1915 18.2763C20.8357 17.5735 20.7952 16.4787 20.0924 15.83L19.8356 15.5957L19.6013 15.8525C18.9525 16.5508 18.9976 17.6501 19.7004 18.2944L19.9572 18.5286Z" fill="#FFE500"/>
</g>
<path d="M13.0633 24.4564L13.1129 24.114L12.7705 24.0644C11.8244 23.9292 10.9458 24.5915 10.8152 25.5376L10.7656 25.88L11.108 25.9251C12.0541 26.0602 12.9281 25.4024 13.0633 24.4564Z" fill="#FFE500"/>
<path d="M18.7952 23.992C18.7952 24.1858 18.7276 24.348 18.5925 24.4831C18.4573 24.6183 18.2951 24.6859 18.1059 24.6859C17.9122 24.6859 17.75 24.6183 17.6148 24.4831C17.4797 24.348 17.4121 24.1858 17.4121 23.992C17.4121 23.8028 17.4797 23.6406 17.6148 23.5055C17.75 23.3703 17.9122 23.3027 18.1059 23.3027C18.2951 23.3027 18.4573 23.3703 18.5925 23.5055C18.7276 23.6406 18.7952 23.8028 18.7952 23.992Z" fill="#FFE500"/>
<path d="M24.6097 32.52C24.6097 32.7092 24.5421 32.8759 24.4069 33.0111C24.2718 33.1462 24.1096 33.2138 23.9159 33.2138C23.7266 33.2138 23.5645 33.1462 23.4293 33.0111C23.2941 32.8759 23.2266 32.7092 23.2266 32.52C23.2266 32.3308 23.2941 32.1641 23.4293 32.0289C23.5645 31.8938 23.7266 31.8262 23.9159 31.8262C24.1096 31.8262 24.2718 31.8938 24.4069 32.0289C24.5421 32.1641 24.6097 32.3308 24.6097 32.52Z" fill="#FFE500"/>
<path d="M18.7952 19.4946C18.7952 19.6838 18.7276 19.846 18.5925 19.9812C18.4573 20.1163 18.2951 20.1839 18.1059 20.1839C17.9122 20.1839 17.75 20.1163 17.6148 19.9812C17.4797 19.846 17.4121 19.6838 17.4121 19.4946C17.4121 19.3009 17.4797 19.1387 17.6148 19.0035C17.75 18.8684 17.9122 18.8008 18.1059 18.8008C18.2951 18.8008 18.4573 18.8684 18.5925 19.0035C18.7276 19.1387 18.7952 19.3009 18.7952 19.4946Z" fill="#FFE500"/>
<path d="M15.6181 20.0591C15.6181 20.2528 15.5505 20.415 15.4153 20.5501C15.2802 20.6853 15.1135 20.7529 14.9243 20.7529C14.7306 20.7529 14.5684 20.6853 14.4332 20.5501C14.298 20.415 14.2305 20.2528 14.2305 20.0591C14.2305 19.8698 14.298 19.7031 14.4332 19.568C14.5684 19.4328 14.7306 19.3652 14.9243 19.3652C15.1135 19.3652 15.2802 19.4328 15.4153 19.568C15.5505 19.7031 15.6181 19.8698 15.6181 20.0591Z" fill="#FFE500"/>
<path d="M22.5335 23.1762C22.5335 23.3655 22.4659 23.5276 22.3308 23.6628C22.1956 23.798 22.0334 23.8655 21.8397 23.8655C21.6505 23.8655 21.4883 23.798 21.3531 23.6628C21.218 23.5276 21.1504 23.3655 21.1504 23.1762C21.1504 22.9825 21.218 22.8203 21.3531 22.6852C21.4883 22.55 21.6505 22.4824 21.8397 22.4824C22.0334 22.4824 22.1956 22.55 22.3308 22.6852C22.4659 22.8203 22.5335 22.9825 22.5335 23.1762Z" fill="#FFE500"/>
<path d="M20.8714 21.2251C20.8714 21.4143 20.8038 21.5765 20.6687 21.7116C20.5335 21.8468 20.3713 21.9144 20.1821 21.9144C19.9884 21.9144 19.8262 21.8468 19.691 21.7116C19.5559 21.5765 19.4883 21.4143 19.4883 21.2251C19.4883 21.0313 19.5559 20.8692 19.691 20.734C19.8262 20.5988 19.9884 20.5313 20.1821 20.5313C20.3713 20.5313 20.5335 20.5988 20.6687 20.734C20.8038 20.8692 20.8714 21.0313 20.8714 21.2251Z" fill="#FFE500"/>
<path d="M17.6943 21.7889C17.6943 21.9826 17.6267 22.1448 17.4915 22.28C17.3564 22.4152 17.1897 22.4827 17.0004 22.4827C16.8067 22.4827 16.6445 22.4152 16.5094 22.28C16.3742 22.1448 16.3066 21.9826 16.3066 21.7889C16.3066 21.5997 16.3742 21.4375 16.5094 21.3024C16.6445 21.1672 16.8067 21.0996 17.0004 21.0996C17.1897 21.0996 17.3564 21.1672 17.4915 21.3024C17.6267 21.4375 17.6943 21.5997 17.6943 21.7889Z" fill="#FFE500"/>
<path d="M14.5745 22.4809C14.5745 22.6702 14.5069 22.8368 14.3718 22.972C14.2366 23.1072 14.0744 23.1747 13.8807 23.1747C13.6915 23.1747 13.5293 23.1072 13.3941 22.972C13.259 22.8368 13.1914 22.6702 13.1914 22.4809C13.1914 22.2917 13.259 22.125 13.3941 21.9899C13.5293 21.8547 13.6915 21.7871 13.8807 21.7871C14.0744 21.7871 14.2366 21.8547 14.3718 21.9899C14.5069 22.125 14.5745 22.2917 14.5745 22.4809Z" fill="#FFE500"/>
<path d="M23.5781 29.4082H24.2674V30.7913H23.5781V29.4082Z" fill="#FFE500"/>
<mask id="mask5_2677_7543" style="mask-type:luminance" maskUnits="userSpaceOnUse" x="7" y="22" width="22" height="15">
<path d="M7.92773 22.7129H28.7653V36.0308H7.92773V22.7129Z" fill="white"/>
</mask>
<g mask="url(#mask5_2677_7543)">
<path d="M21.9666 33.5795C21.9396 33.5705 21.917 33.566 21.89 33.5615L20.25 33.3272C20.1014 32.8317 19.9662 32.291 19.8536 31.7098C19.4526 29.6824 19.2498 28.4659 19.8536 27.2089C20.3762 26.1141 21.2908 25.4789 21.926 25.1319L20.5294 24.339C18.5515 26.1862 17.5828 26.3169 17.0647 26.0691C16.5105 25.8077 16.1501 24.4291 15.3346 23.3027L14.2984 23.9966C14.5146 24.2489 14.6498 24.5417 15.3346 26.0736C15.6996 26.8845 16.4475 28.5966 16.3754 30.9169C16.3483 31.7413 16.2222 32.4847 16.051 33.147L15.5644 33.2146C15.5509 33.2191 15.5419 33.2191 15.5284 33.2236L14.1722 33.566L12.0952 33.9084C12.0592 33.9175 12.0277 33.9265 11.9961 33.94L10.685 34.5978H9.72539C9.70287 34.5978 9.68034 34.5978 9.65781 34.6023L7.92773 34.9492L8.0629 35.6295L9.76144 35.2916H10.7661C10.8202 35.2916 10.8743 35.2781 10.9193 35.2556L12.2574 34.5843L14.3119 34.2418L15.677 33.8994L18.0154 33.566L19.3354 33.8949C19.349 33.8994 19.358 33.8994 19.3715 33.9039L21.7548 34.2418L24.4896 35.2691C24.5302 35.2826 24.5707 35.2916 24.6113 35.2916H28.7653V34.5978H24.6743L21.9666 33.5795Z" fill="#FFE500"/>
</g>
<defs>
<linearGradient id="paint0_linear_2677_7543" x1="-0.000889348" y1="25.7359" x2="35.6701" y2="25.7359" gradientUnits="userSpaceOnUse">
<stop stop-color="#340774"/>
<stop offset="0.00390625" stop-color="#350774"/>
<stop offset="0.0078125" stop-color="#350775"/>
<stop offset="0.0117188" stop-color="#360875"/>
<stop offset="0.015625" stop-color="#370876"/>
<stop offset="0.0195312" stop-color="#370876"/>
<stop offset="0.0234375" stop-color="#380876"/>
<stop offset="0.0273438" stop-color="#390977"/>
<stop offset="0.03125" stop-color="#3A0977"/>
<stop offset="0.0351562" stop-color="#3A0977"/>
<stop offset="0.0390625" stop-color="#3B0978"/>
<stop offset="0.0429688" stop-color="#3C0A78"/>
<stop offset="0.046875" stop-color="#3C0A79"/>
<stop offset="0.0507812" stop-color="#3D0A79"/>
<stop offset="0.0546875" stop-color="#3E0A79"/>
<stop offset="0.0585938" stop-color="#3E0B7A"/>
<stop offset="0.0625" stop-color="#3F0B7A"/>
<stop offset="0.0664062" stop-color="#400B7A"/>
<stop offset="0.0703125" stop-color="#400B7B"/>
<stop offset="0.0742188" stop-color="#410C7B"/>
<stop offset="0.078125" stop-color="#420C7C"/>
<stop offset="0.0820312" stop-color="#420C7C"/>
<stop offset="0.0859375" stop-color="#430C7C"/>
<stop offset="0.0898438" stop-color="#440D7D"/>
<stop offset="0.09375" stop-color="#450D7D"/>
<stop offset="0.0976562" stop-color="#450D7D"/>
<stop offset="0.101562" stop-color="#460D7E"/>
<stop offset="0.105469" stop-color="#470E7E"/>
<stop offset="0.109375" stop-color="#470E7F"/>
<stop offset="0.113281" stop-color="#480E7F"/>
<stop offset="0.117188" stop-color="#490E7F"/>
<stop offset="0.121094" stop-color="#490F80"/>
<stop offset="0.125" stop-color="#4A0F80"/>
<stop offset="0.128906" stop-color="#4B0F80"/>
<stop offset="0.132812" stop-color="#4B0F81"/>
<stop offset="0.136719" stop-color="#4C1081"/>
<stop offset="0.140625" stop-color="#4D1082"/>
<stop offset="0.144531" stop-color="#4D1082"/>
<stop offset="0.148438" stop-color="#4E1082"/>
<stop offset="0.152344" stop-color="#4F1183"/>
<stop offset="0.15625" stop-color="#501183"/>
<stop offset="0.160156" stop-color="#501183"/>
<stop offset="0.164062" stop-color="#511184"/>
<stop offset="0.167969" stop-color="#521284"/>
<stop offset="0.171875" stop-color="#521285"/>
<stop offset="0.175781" stop-color="#531285"/>
<stop offset="0.179688" stop-color="#541285"/>
<stop offset="0.183594" stop-color="#541386"/>
<stop offset="0.1875" stop-color="#551386"/>
<stop offset="0.191406" stop-color="#561386"/>
<stop offset="0.195312" stop-color="#561387"/>
<stop offset="0.199219" stop-color="#571487"/>
<stop offset="0.203125" stop-color="#581487"/>
<stop offset="0.207031" stop-color="#581488"/>
<stop offset="0.210938" stop-color="#591488"/>
<stop offset="0.214844" stop-color="#5A1589"/>
<stop offset="0.21875" stop-color="#5B1589"/>
<stop offset="0.222656" stop-color="#5B1589"/>
<stop offset="0.226562" stop-color="#5C158A"/>
<stop offset="0.230469" stop-color="#5D168A"/>
<stop offset="0.234375" stop-color="#5D168A"/>
<stop offset="0.238281" stop-color="#5E168B"/>
<stop offset="0.242188" stop-color="#5F168B"/>
<stop offset="0.246094" stop-color="#5F178C"/>
<stop offset="0.25" stop-color="#60178C"/>
<stop offset="0.253906" stop-color="#61178C"/>
<stop offset="0.257812" stop-color="#61178D"/>
<stop offset="0.261719" stop-color="#62188D"/>
<stop offset="0.265625" stop-color="#63188D"/>
<stop offset="0.269531" stop-color="#63188E"/>
<stop offset="0.273438" stop-color="#64188E"/>
<stop offset="0.277344" stop-color="#65198F"/>
<stop offset="0.28125" stop-color="#66198F"/>
<stop offset="0.285156" stop-color="#66198F"/>
<stop offset="0.289062" stop-color="#671990"/>
<stop offset="0.292969" stop-color="#681A90"/>
<stop offset="0.296875" stop-color="#681A90"/>
<stop offset="0.300781" stop-color="#691A91"/>
<stop offset="0.304688" stop-color="#6A1A91"/>
<stop offset="0.308594" stop-color="#6A1B92"/>
<stop offset="0.3125" stop-color="#6B1B92"/>
<stop offset="0.316406" stop-color="#6C1B92"/>
<stop offset="0.320312" stop-color="#6C1B93"/>
<stop offset="0.324219" stop-color="#6D1C93"/>
<stop offset="0.328125" stop-color="#6E1C93"/>
<stop offset="0.332031" stop-color="#6E1C94"/>
<stop offset="0.335938" stop-color="#6F1C94"/>
<stop offset="0.339844" stop-color="#701D95"/>
<stop offset="0.34375" stop-color="#711D95"/>
<stop offset="0.347656" stop-color="#711D95"/>
<stop offset="0.351562" stop-color="#721D96"/>
<stop offset="0.355469" stop-color="#731E96"/>
<stop offset="0.359375" stop-color="#731E96"/>
<stop offset="0.363281" stop-color="#741E97"/>
<stop offset="0.367188" stop-color="#751E97"/>
<stop offset="0.371094" stop-color="#751F98"/>
<stop offset="0.375" stop-color="#761F98"/>
<stop offset="0.378906" stop-color="#771F98"/>
<stop offset="0.382812" stop-color="#771F99"/>
<stop offset="0.386719" stop-color="#782099"/>
<stop offset="0.390625" stop-color="#792099"/>
<stop offset="0.394531" stop-color="#79209A"/>
<stop offset="0.398438" stop-color="#7A209A"/>
<stop offset="0.402344" stop-color="#7B219B"/>
<stop offset="0.40625" stop-color="#7B219B"/>
<stop offset="0.410156" stop-color="#7C219B"/>
<stop offset="0.414062" stop-color="#7D219C"/>
<stop offset="0.417969" stop-color="#7E229C"/>
<stop offset="0.421875" stop-color="#7E229C"/>
<stop offset="0.425781" stop-color="#7F229D"/>
<stop offset="0.429688" stop-color="#80229D"/>
<stop offset="0.433594" stop-color="#80239E"/>
<stop offset="0.4375" stop-color="#81239E"/>
<stop offset="0.441406" stop-color="#82239E"/>
<stop offset="0.445312" stop-color="#82239F"/>
<stop offset="0.449219" stop-color="#83249F"/>
<stop offset="0.453125" stop-color="#84249F"/>
<stop offset="0.457031" stop-color="#8424A0"/>
<stop offset="0.460938" stop-color="#8524A0"/>
<stop offset="0.464844" stop-color="#8625A1"/>
<stop offset="0.46875" stop-color="#8625A1"/>
<stop offset="0.472656" stop-color="#8725A1"/>
<stop offset="0.476562" stop-color="#8825A2"/>
<stop offset="0.480469" stop-color="#8926A2"/>
<stop offset="0.484375" stop-color="#8926A2"/>
<stop offset="0.488281" stop-color="#8A26A3"/>
<stop offset="0.492188" stop-color="#8B26A3"/>
<stop offset="0.496094" stop-color="#8B27A4"/>
<stop offset="0.5" stop-color="#8C27A4"/>
<stop offset="0.503906" stop-color="#8D27A4"/>
<stop offset="0.507812" stop-color="#8D27A5"/>
<stop offset="0.511719" stop-color="#8E28A5"/>
<stop offset="0.515625" stop-color="#8F28A5"/>
<stop offset="0.519531" stop-color="#8F28A6"/>
<stop offset="0.523437" stop-color="#9028A6"/>
<stop offset="0.527344" stop-color="#9129A7"/>
<stop offset="0.53125" stop-color="#9129A7"/>
<stop offset="0.535156" stop-color="#9229A7"/>
<stop offset="0.539062" stop-color="#9329A8"/>
<stop offset="0.542969" stop-color="#942AA8"/>
<stop offset="0.546875" stop-color="#942AA8"/>
<stop offset="0.550781" stop-color="#952AA9"/>
<stop offset="0.554688" stop-color="#962AA9"/>
<stop offset="0.558594" stop-color="#962BAA"/>
<stop offset="0.5625" stop-color="#972BAA"/>
<stop offset="0.566406" stop-color="#982BAA"/>
<stop offset="0.570312" stop-color="#982BAB"/>
<stop offset="0.574219" stop-color="#992CAB"/>
<stop offset="0.578125" stop-color="#9A2CAB"/>
<stop offset="0.582031" stop-color="#9A2CAC"/>
<stop offset="0.585938" stop-color="#9B2CAC"/>
<stop offset="0.589844" stop-color="#9C2DAD"/>
<stop offset="0.59375" stop-color="#9C2DAD"/>
<stop offset="0.597656" stop-color="#9D2DAD"/>
<stop offset="0.601562" stop-color="#9E2DAE"/>
<stop offset="0.605469" stop-color="#9F2EAE"/>
<stop offset="0.609375" stop-color="#9F2EAE"/>
<stop offset="0.613281" stop-color="#A02EAF"/>
<stop offset="0.617187" stop-color="#A12EAF"/>
<stop offset="0.621094" stop-color="#A12FB0"/>
<stop offset="0.625" stop-color="#A22FB0"/>
<stop offset="0.628906" stop-color="#A32FB0"/>
<stop offset="0.632812" stop-color="#A32FB1"/>
<stop offset="0.636719" stop-color="#A430B1"/>
<stop offset="0.640625" stop-color="#A530B1"/>
<stop offset="0.644531" stop-color="#A530B2"/>
<stop offset="0.648438" stop-color="#A630B2"/>
<stop offset="0.652344" stop-color="#A731B3"/>
<stop offset="0.65625" stop-color="#A731B3"/>
<stop offset="0.660156" stop-color="#A831B3"/>
<stop offset="0.664062" stop-color="#A931B4"/>
<stop offset="0.667969" stop-color="#AA32B4"/>
<stop offset="0.671875" stop-color="#AA32B4"/>
<stop offset="0.675781" stop-color="#AB32B5"/>
<stop offset="0.679688" stop-color="#AC32B5"/>
<stop offset="0.683594" stop-color="#AC33B6"/>
<stop offset="0.6875" stop-color="#AD33B6"/>
<stop offset="0.691406" stop-color="#AE33B6"/>
<stop offset="0.695313" stop-color="#AE33B7"/>
<stop offset="0.699219" stop-color="#AF34B7"/>
<stop offset="0.703125" stop-color="#B034B7"/>
<stop offset="0.707031" stop-color="#B034B8"/>
<stop offset="0.710937" stop-color="#B134B8"/>
<stop offset="0.714844" stop-color="#B235B9"/>
<stop offset="0.71875" stop-color="#B235B9"/>
<stop offset="0.722656" stop-color="#B335B9"/>
<stop offset="0.726562" stop-color="#B435BA"/>
<stop offset="0.730469" stop-color="#B536BA"/>
<stop offset="0.734375" stop-color="#B536BA"/>
<stop offset="0.738281" stop-color="#B636BB"/>
<stop offset="0.742188" stop-color="#B736BB"/>
<stop offset="0.746094" stop-color="#B737BC"/>
<stop offset="0.75" stop-color="#B837BC"/>
<stop offset="0.753906" stop-color="#B937BC"/>
<stop offset="0.757812" stop-color="#B937BD"/>
<stop offset="0.761719" stop-color="#BA38BD"/>
<stop offset="0.765625" stop-color="#BB38BD"/>
<stop offset="0.769531" stop-color="#BB38BE"/>
<stop offset="0.773438" stop-color="#BC38BE"/>
<stop offset="0.777344" stop-color="#BD39BF"/>
<stop offset="0.78125" stop-color="#BD39BF"/>
<stop offset="0.785156" stop-color="#BE39BF"/>
<stop offset="0.789063" stop-color="#BF39C0"/>
<stop offset="0.792969" stop-color="#C03AC0"/>
<stop offset="0.796875" stop-color="#C03AC0"/>
<stop offset="0.800781" stop-color="#C13AC1"/>
<stop offset="0.804687" stop-color="#C23AC1"/>
<stop offset="0.808594" stop-color="#C23BC2"/>
<stop offset="0.8125" stop-color="#C33BC2"/>
<stop offset="0.816406" stop-color="#C43BC2"/>
<stop offset="0.820312" stop-color="#C43BC3"/>
<stop offset="0.824219" stop-color="#C53CC3"/>
<stop offset="0.828125" stop-color="#C63CC3"/>
<stop offset="0.832031" stop-color="#C63CC4"/>
<stop offset="0.835938" stop-color="#C73CC4"/>
<stop offset="0.839844" stop-color="#C83DC5"/>
<stop offset="0.84375" stop-color="#C83DC5"/>
<stop offset="0.847656" stop-color="#C93DC5"/>
<stop offset="0.851562" stop-color="#CA3DC6"/>
<stop offset="0.855469" stop-color="#CB3EC6"/>
<stop offset="0.859375" stop-color="#CB3EC6"/>
<stop offset="0.863281" stop-color="#CC3EC7"/>
<stop offset="0.867188" stop-color="#CD3EC7"/>
<stop offset="0.871094" stop-color="#CD3FC8"/>
<stop offset="0.875" stop-color="#CE3FC8"/>
<stop offset="0.878906" stop-color="#CF3FC8"/>
<stop offset="0.882813" stop-color="#CF3FC9"/>
<stop offset="0.886719" stop-color="#D040C9"/>
<stop offset="0.890625" stop-color="#D140C9"/>
<stop offset="0.894531" stop-color="#D140CA"/>
<stop offset="0.898438" stop-color="#D240CA"/>
<stop offset="0.902344" stop-color="#D341CB"/>
<stop offset="0.90625" stop-color="#D341CB"/>
<stop offset="0.910156" stop-color="#D441CB"/>
<stop offset="0.914062" stop-color="#D541CC"/>
<stop offset="0.917969" stop-color="#D642CC"/>
<stop offset="0.921875" stop-color="#D642CC"/>
<stop offset="0.925781" stop-color="#D742CD"/>
<stop offset="0.929688" stop-color="#D842CD"/>
<stop offset="0.933594" stop-color="#D843CE"/>
<stop offset="0.9375" stop-color="#D943CE"/>
<stop offset="0.941406" stop-color="#DA43CE"/>
<stop offset="0.945312" stop-color="#DA43CF"/>
<stop offset="0.949219" stop-color="#DB44CF"/>
<stop offset="0.953125" stop-color="#DC44CF"/>
<stop offset="0.957031" stop-color="#DC44D0"/>
<stop offset="0.960938" stop-color="#DD44D0"/>
<stop offset="0.964844" stop-color="#DE45D1"/>
<stop offset="0.96875" stop-color="#DE45D1"/>
<stop offset="0.972656" stop-color="#DF45D1"/>
<stop offset="0.976563" stop-color="#E045D2"/>
<stop offset="0.980469" stop-color="#E146D2"/>
<stop offset="0.984375" stop-color="#E146D2"/>
<stop offset="0.988281" stop-color="#E246D3"/>
<stop offset="0.992188" stop-color="#E346D3"/>
<stop offset="0.996094" stop-color="#E347D4"/>
<stop offset="1" stop-color="#E447D4"/>
</linearGradient>
</defs>
</svg>
